# Blender v2.83.5 OBJ File: 'Schiene.v04.blend'
# www.blender.org
mtllib Himmel.mtl
o Plane_Plane.003
v 1.999999 6.050238 -0.000000
v 2.000001 -6.050238 -0.000000
v -2.000001 6.050238 0.000000
v -1.999999 -6.050238 0.000000
v 2.000000 2.016746 -0.000000
v 2.000000 -2.016746 -0.000000
v -2.000000 -2.016746 0.000000
v -2.000000 2.016746 0.000000
vt 0.329637 0.333985
vt 0.329637 0.008575
vt 0.006930 0.008575
vt 0.006930 0.333985
vt 0.329637 0.984804
vt 0.329637 0.659395
vt 0.006930 0.659395
vt 0.006930 0.984804
vn -0.0000 -0.0000 -1.0000
usemtl None
s off
f 6/1/1 2/2/1 4/3/1 7/4/1
f 1/5/1 5/6/1 8/7/1 3/8/1
f 5/6/1 6/1/1 7/4/1 8/7/1
